<?xml version="1.0" encoding="UTF-8"?>
<!-- Generator: visioncortex VTracer -->
<svg id="svg" version="1.1" xmlns="http://www.w3.org/2000/svg" style="display: block;" viewBox="0 0 1024 1024"><path d="M0,0 L1024,0 L1024,1024 L0,1024 Z " transform="translate(0,0)" style="fill: #95DCEC;"/><path d="M0,0 L38,0 L79,3 L118,9 L144,15 L160,19 L169,22 L196,31 L223,42 L247,53 L269,65 L291,78 L301,85 L314,94 L330,106 L346,119 L359,131 L367,138 L391,162 L398,170 L409,183 L420,197 L428,208 L438,222 L447,236 L453,245 L459,257 L470,276 L478,294 L487,314 L493,330 L502,356 L510,385 L515,410 L518,425 L523,470 L523,527 L521,555 L518,581 L515,597 L513,609 L509,624 L502,651 L495,671 L484,699 L475,719 L465,738 L452,761 L437,784 L426,800 L413,817 L400,833 L391,844 L358,877 L350,884 L338,894 L328,902 L309,916 L292,928 L274,939 L256,949 L246,955 L226,964 L216,969 L200,975 L187,980 L175,984 L164,988 L134,996 L119,999 L104,1002 L85,1005 L54,1008 L-11,1008 L-34,1006 L-69,1001 L-81,998 L-97,995 L-119,989 L-146,980 L-165,973 L-190,962 L-206,954 L-230,941 L-252,927 L-262,920 L-267,916 L-274,912 L-285,903 L-301,890 L-309,883 L-325,868 L-332,861 L-337,857 L-344,849 L-349,844 L-355,836 L-347,832 L-344,832 L-340,844 L-333,851 L-325,854 L-312,855 L-300,866 L-292,873 L-284,880 L-273,889 L-254,903 L-239,913 L-221,924 L-202,935 L-177,947 L-169,951 L-159,955 L-146,960 L-135,964 L-125,967 L-109,972 L-86,978 L-62,983 L-36,987 L-5,990 L37,990 L70,988 L98,984 L125,979 L145,974 L170,966 L181,963 L192,958 L212,950 L237,938 L256,928 L271,919 L282,912 L301,899 L314,889 L324,881 L338,869 L352,857 L356,855 L356,853 L330,860 L319,868 L307,878 L295,887 L284,895 L269,905 L253,915 L242,921 L221,932 L203,940 L189,946 L172,952 L165,955 L143,961 L133,964 L124,966 L97,972 L78,975 L53,977 L-7,977 L-30,975 L-61,971 L-77,967 L-100,962 L-113,958 L-134,951 L-154,943 L-170,937 L-185,929 L-201,921 L-218,911 L-229,904 L-238,898 L-252,888 L-265,878 L-273,872 L-284,862 L-292,855 L-296,851 L-296,849 L-280,840 L-275,842 L-268,848 L-257,857 L-248,865 L-230,878 L-207,893 L-186,905 L-160,918 L-136,928 L-119,934 L-95,941 L-90,943 L-90,928 L-98,927 L-119,920 L-143,911 L-159,903 L-175,895 L-190,887 L-213,873 L-219,868 L-228,863 L-241,852 L-255,841 L-259,837 L-270,836 L-275,833 L-279,826 L-293,835 L-309,843 L-324,843 L-331,837 L-332,835 L-332,824 L-326,809 L-325,807 L-341,817 L-357,825 L-366,827 L-380,827 L-386,824 L-390,819 L-391,817 L-390,808 L-383,797 L-371,781 L-358,762 L-352,755 L-339,737 L-328,722 L-314,703 L-303,688 L-292,673 L-285,664 L-284,646 L-298,652 L-324,662 L-343,669 L-357,673 L-366,673 L-370,671 L-373,667 L-372,658 L-365,646 L-356,635 L-342,621 L-339,612 L-335,604 L-326,592 L-317,582 L-309,572 L-303,567 L-300,563 L-298,563 L-296,559 L-287,550 L-286,548 L-285,535 L-279,512 L-275,503 L-269,490 L-261,475 L-255,464 L-245,449 L-235,435 L-230,428 L-222,407 L-215,391 L-205,373 L-197,360 L-190,350 L-177,333 L-172,327 L-170,327 L-168,323 L-161,315 L-146,301 L-135,292 L-124,284 L-113,277 L-97,268 L-84,262 L-70,258 L-57,250 L-46,242 L-38,235 L-36,235 L-35,232 L-28,226 L-20,216 L-13,208 L-12,206 L-24,206 L-22,201 L-18,196 L-11,187 L3,172 L13,164 L-1,155 L-8,147 L-8,145 L8,141 L3,136 L-5,126 L-8,119 L-9,112 L7,116 L21,117 L13,106 L9,96 L8,91 L8,75 L10,73 L25,83 L43,90 L61,94 L87,97 L114,99 L138,103 L159,109 L183,120 L195,128 L206,137 L214,145 L223,159 L227,170 L228,184 L239,194 L246,204 L251,214 L253,224 L253,239 L251,250 L243,266 L237,273 L228,279 L227,279 L225,259 L224,257 L194,257 L187,263 L180,273 L176,283 L175,287 L175,306 L183,313 L193,327 L198,338 L200,349 L200,366 L197,386 L189,408 L180,425 L170,440 L162,450 L150,463 L137,475 L127,483 L122,488 L115,495 L110,500 L103,508 L92,517 L86,529 L77,554 L69,580 L66,593 L66,598 L68,600 L76,600 L96,596 L120,592 L141,588 L153,588 L176,595 L201,602 L232,611 L250,616 L266,621 L280,625 L300,631 L324,638 L346,644 L364,650 L368,656 L369,728 L378,712 L379,693 L389,693 L391,686 L379,686 L379,675 L397,675 L399,669 L378,668 L377,653 L374,645 L367,640 L358,637 L351,635 L350,628 L346,624 L344,623 L334,623 L329,628 L322,627 L306,622 L286,616 L276,613 L276,610 L321,609 L353,577 L351,573 L347,574 L324,597 L319,602 L318,603 L278,603 L278,564 L283,561 L285,557 L285,550 L280,544 L278,543 L269,544 L265,548 L265,559 L271,564 L271,606 L266,610 L250,605 L249,604 L249,536 L255,530 L301,529 L307,531 L312,532 L315,530 L315,523 L313,522 L307,522 L306,523 L250,524 L248,528 L242,535 L242,593 L241,602 L231,600 L229,599 L229,531 L236,524 L238,521 L240,521 L242,517 L250,509 L341,509 L346,516 L352,519 L358,519 L366,514 L368,509 L448,509 L448,530 L351,531 L329,553 L324,558 L314,568 L310,572 L299,573 L295,578 L295,587 L299,592 L309,592 L313,589 L314,586 L314,577 L354,537 L446,537 L446,548 L442,579 L438,603 L432,627 L429,635 L425,646 L420,663 L414,676 L410,686 L399,709 L387,730 L391,731 L396,735 L398,744 L407,727 L415,713 L423,697 L430,681 L437,664 L443,647 L449,626 L454,609 L460,577 L463,555 L465,532 L465,484 L462,453 L458,428 L455,415 L449,390 L442,368 L434,347 L426,328 L416,307 L407,291 L399,277 L389,262 L375,242 L362,226 L354,216 L338,199 L333,194 L319,180 L311,173 L300,164 L288,155 L276,146 L262,137 L262,135 L257,133 L244,125 L233,119 L215,109 L205,105 L190,98 L175,92 L151,84 L135,79 L113,74 L77,68 L43,65 L15,64 L5,55 L3,57 L0,64 L-51,70 L-82,76 L-99,81 L-114,85 L-144,96 L-168,107 L-185,115 L-209,129 L-226,140 L-240,150 L-252,159 L-263,168 L-264,170 L-269,173 L-284,187 L-292,194 L-300,203 L-305,208 L-312,216 L-319,224 L-326,232 L-338,248 L-345,258 L-352,268 L-358,277 L-360,282 L-365,290 L-376,309 L-381,321 L-388,335 L-396,355 L-403,376 L-407,389 L-413,412 L-419,442 L-423,475 L-423,548 L-417,587 L-414,603 L-410,619 L-404,639 L-401,649 L-398,656 L-396,663 L-391,675 L-384,692 L-379,702 L-369,721 L-363,731 L-357,743 L-366,755 L-371,761 L-374,757 L-383,742 L-391,729 L-398,715 L-406,699 L-410,689 L-420,666 L-424,652 L-426,648 L-428,640 L-434,619 L-436,610 L-441,586 L-443,568 L-444,564 L-447,533 L-447,494 L-445,465 L-443,447 L-442,444 L-440,426 L-432,391 L-425,367 L-413,335 L-404,314 L-396,298 L-381,271 L-373,258 L-366,248 L-354,231 L-347,222 L-339,212 L-327,198 L-316,186 L-295,165 L-287,158 L-274,147 L-260,136 L-242,123 L-219,108 L-203,99 L-176,85 L-156,76 L-132,67 L-118,62 L-93,55 L-64,49 L-34,44 L-11,42 L48,42 L70,44 L95,47 L125,53 L140,57 L161,63 L192,74 L218,85 L237,95 L252,103 L271,115 L289,127 L301,136 L317,149 L328,158 L340,169 L367,196 L376,207 L386,219 L396,232 L407,247 L414,258 L422,271 L434,292 L447,318 L457,342 L464,362 L471,383 L480,419 L485,454 L487,471 L488,491 L488,525 L486,557 L482,585 L478,607 L474,623 L470,637 L466,650 L463,659 L460,669 L456,678 L451,691 L443,707 L435,724 L426,740 L424,742 L421,749 L411,764 L404,775 L398,783 L398,806 L412,787 L416,781 L426,766 L433,755 L439,745 L450,726 L459,707 L464,696 L471,680 L477,663 L480,656 L485,639 L489,624 L493,609 L496,596 L497,587 L499,578 L502,555 L504,523 L504,480 L503,476 L501,447 L497,420 L494,405 L490,390 L484,367 L477,347 L468,323 L459,303 L451,287 L443,271 L433,254 L425,241 L413,224 L401,208 L388,192 L388,190 L385,189 L376,178 L367,169 L360,161 L347,149 L336,139 L328,132 L317,124 L306,115 L289,103 L273,93 L260,85 L246,77 L230,69 L206,58 L183,49 L148,38 L127,33 L114,30 L97,27 L65,23 L35,21 L9,21 L-25,23 L-51,26 L-78,31 L-96,35 L-115,40 L-142,49 L-157,55 L-167,59 L-191,70 L-216,83 L-237,96 L-258,110 L-275,123 L-289,134 L-292,135 L-293,138 L-304,147 L-321,164 L-326,169 L-340,183 L-351,197 L-361,209 L-373,225 L-383,240 L-392,254 L-401,269 L-414,294 L-422,310 L-429,327 L-435,342 L-440,357 L-444,370 L-449,389 L-451,397 L-454,410 L-460,447 L-462,464 L-463,481 L-463,526 L-461,557 L-456,588 L-452,609 L-448,625 L-441,649 L-433,671 L-429,683 L-427,685 L-422,698 L-413,717 L-410,722 L-400,741 L-393,752 L-384,766 L-380,772 L-382,777 L-391,789 L-395,785 L-401,777 L-407,766 L-418,748 L-428,729 L-436,714 L-444,696 L-450,682 L-455,669 L-463,644 L-468,625 L-470,619 L-476,587 L-479,572 L-481,556 L-483,525 L-483,489 L-481,456 L-479,438 L-475,412 L-471,391 L-463,360 L-455,336 L-449,320 L-441,300 L-429,275 L-422,262 L-410,241 L-397,221 L-385,204 L-377,194 L-367,181 L-355,167 L-349,160 L-344,155 L-325,136 L-317,129 L-304,117 L-295,110 L-278,97 L-267,89 L-241,72 L-227,64 L-216,58 L-200,50 L-179,40 L-148,28 L-127,21 L-115,18 L-97,13 L-61,6 L-27,2 Z " transform="translate(492,8)" style="fill: #081626;"/><path d="M0,0 L1024,0 L1024,1024 L0,1024 Z M492,8 L454,11 L425,15 L395,21 L377,26 L356,32 L333,40 L308,50 L292,58 L276,66 L265,72 L246,83 L225,97 L206,111 L195,120 L185,128 L173,139 L158,153 L146,165 L139,173 L129,184 L120,195 L113,204 L99,223 L89,238 L74,263 L65,279 L54,302 L44,325 L39,338 L28,371 L20,402 L14,437 L12,451 L10,475 L9,497 L9,533 L11,564 L15,592 L21,620 L23,631 L27,644 L32,661 L37,677 L44,694 L48,704 L52,712 L56,722 L67,743 L76,760 L90,782 L94,789 L99,796 L97,802 L94,805 L89,818 L90,828 L92,834 L97,840 L105,845 L111,847 L127,847 L133,845 L138,846 L143,852 L148,857 L158,868 L166,875 L176,885 L184,892 L194,901 L208,912 L222,923 L229,927 L238,934 L256,945 L269,953 L287,963 L313,975 L332,983 L360,993 L373,997 L395,1003 L414,1007 L429,1010 L467,1015 L481,1016 L546,1016 L577,1013 L607,1008 L619,1005 L633,1002 L659,995 L675,989 L687,985 L703,979 L718,972 L740,962 L754,954 L773,943 L794,929 L808,919 L821,909 L837,896 L848,886 L856,879 L886,849 L894,839 L907,823 L918,808 L934,785 L946,765 L958,744 L967,727 L978,702 L988,676 L996,652 L1001,632 L1005,617 L1007,605 L1010,589 L1013,563 L1015,535 L1015,478 L1010,433 L1004,401 L995,367 L987,343 L980,326 L974,310 L963,287 L957,275 L946,256 L940,245 L933,235 L926,224 L917,212 L905,196 L894,183 L885,173 L876,163 L853,140 L845,133 L835,124 L818,111 L805,101 L790,91 L776,82 L766,76 L748,66 L732,58 L713,49 L682,37 L658,29 L633,22 L610,17 L571,11 L530,8 Z " transform="translate(0,0)" style="fill: #FEFEFE;"/><path d="M0,0 L14,0 L17,22 L-1,17 L-5,15 L-2,36 L3,49 L6,54 L6,56 L-6,58 L-6,61 L1,72 L10,82 L12,85 L-2,99 L-8,107 L-17,120 L-23,131 L-24,135 L-18,135 L-22,141 L-33,151 L-52,164 L-61,168 L-75,173 L-93,181 L-103,187 L-119,198 L-133,209 L-149,224 L-158,233 L-167,244 L-180,260 L-187,271 L-196,285 L-208,308 L-212,315 L-217,329 L-222,342 L-233,357 L-243,372 L-256,394 L-264,410 L-270,423 L-276,443 L-278,451 L-279,462 L-282,467 L-287,471 L-292,476 L-301,486 L-310,496 L-319,507 L-326,517 L-333,531 L-335,536 L-343,543 L-354,556 L-363,570 L-365,568 L-369,556 L-375,536 L-379,517 L-383,496 L-386,476 L-388,450 L-388,410 L-385,375 L-384,374 L-382,358 L-376,330 L-371,310 L-363,286 L-353,261 L-346,246 L-338,230 L-324,205 L-314,190 L-304,175 L-292,160 L-283,149 L-272,137 L-265,129 L-245,109 L-234,100 L-220,88 L-204,76 L-199,73 L-184,63 L-169,54 L-145,41 L-121,30 L-91,19 L-78,15 L-59,10 L-28,4 Z " transform="translate(474,89)" style="fill: #1C4F71;"/><path d="M0,0 L6,2 L20,10 L38,21 L57,34 L71,45 L82,54 L94,65 L102,72 L121,91 L128,99 L139,112 L147,122 L159,139 L167,151 L175,164 L185,181 L194,198 L207,228 L213,245 L218,259 L225,284 L229,304 L234,333 L237,364 L237,376 L158,376 L152,368 L148,366 L141,366 L135,369 L130,376 L37,377 L22,391 L13,400 L12,402 L11,471 L-6,467 L-8,466 L-7,460 L-6,387 L-1,384 L1,380 L1,370 L-4,365 L-6,364 L-14,364 L-19,367 L-22,372 L-22,379 L-18,385 L-13,388 L-13,461 L-15,461 L-15,463 L-23,462 L-45,455 L-56,452 L-69,452 L-104,458 L-132,463 L-133,461 L-127,441 L-117,411 L-111,400 L-107,395 L-105,395 L-105,393 L-97,386 L-90,379 L-83,371 L-78,366 L-70,359 L-59,350 L-44,335 L-36,325 L-26,311 L-16,294 L-8,276 L-3,261 L0,245 L0,220 L-4,205 L-11,191 L-18,182 L-26,174 L-26,166 L-24,157 L-17,145 L-13,141 L4,142 L5,151 L5,165 L4,170 L16,165 L30,157 L39,148 L47,135 L50,127 L52,117 L52,96 L48,81 L42,69 L32,57 L28,54 L25,38 L20,26 L14,16 L2,3 Z " transform="translate(703,134)" style="fill: #246384;"/><path d="M0,0 L14,0 L22,5 L46,16 L55,23 L66,34 L71,39 L79,44 L73,37 L68,27 L67,16 L69,16 L76,30 L86,41 L96,46 L99,47 L109,47 L119,44 L127,38 L130,35 L137,35 L139,30 L150,30 L149,42 L148,49 L141,51 L120,54 L109,57 L104,61 L103,63 L103,69 L109,73 L114,74 L134,75 L143,78 L143,79 L132,80 L131,84 L147,85 L141,92 L134,101 L130,110 L127,119 L126,127 L126,144 L128,167 L128,192 L125,210 L123,210 L113,189 L113,187 L111,187 L111,195 L107,211 L98,227 L93,232 L91,232 L88,217 L85,208 L82,195 L82,221 L86,238 L88,247 L93,244 L101,236 L107,226 L111,216 L114,204 L116,206 L120,218 L120,227 L116,243 L108,263 L100,279 L93,290 L83,304 L73,315 L66,323 L51,338 L37,349 L26,357 L10,367 L-5,376 L-21,384 L-27,386 L-27,379 L-25,366 L-25,342 L-26,335 L-28,335 L-29,348 L-36,374 L-45,401 L-56,429 L-62,443 L-64,443 L-66,437 L-66,427 L-65,425 L-78,444 L-87,456 L-96,466 L-107,475 L-111,477 L-112,476 L-112,436 L-121,444 L-128,452 L-131,454 L-131,428 L-128,411 L-126,402 L-142,412 L-144,413 L-140,396 L-136,392 L-116,380 L-104,372 L-94,364 L-84,356 L-76,350 L-60,342 L-44,330 L-31,318 L-17,304 L-8,293 L2,280 L9,269 L18,255 L28,236 L34,221 L38,207 L41,196 L41,170 L37,154 L34,146 L25,134 L18,128 L3,120 L-13,117 L-26,117 L-46,120 L-65,127 L-77,133 L-86,139 L-96,147 L-96,149 L-76,140 L-62,135 L-44,130 L-38,129 L-13,129 L-1,132 L10,138 L19,146 L26,159 L29,172 L29,187 L26,203 L17,228 L8,245 L1,257 L-7,268 L-13,277 L-23,290 L-39,307 L-46,314 L-57,323 L-73,335 L-75,335 L-72,326 L-63,310 L-58,304 L-50,300 L-37,289 L-30,282 L-22,272 L-13,259 L-7,248 L0,236 L4,229 L10,213 L10,210 L4,219 L-5,230 L-15,237 L-17,238 L-25,238 L-29,234 L-32,224 L-33,216 L-33,205 L-38,217 L-39,221 L-39,239 L-44,245 L-57,254 L-63,256 L-68,255 L-72,250 L-75,239 L-75,223 L-73,213 L-67,215 L-59,215 L-53,212 L-50,207 L-47,206 L-42,196 L-46,201 L-55,207 L-65,207 L-68,201 L-68,185 L-78,203 L-80,202 L-93,210 L-98,212 L-105,212 L-108,207 L-108,190 L-113,198 L-114,201 L-114,213 L-111,218 L-109,219 L-100,219 L-89,213 L-84,207 L-81,206 L-83,215 L-88,225 L-95,235 L-102,244 L-107,249 L-109,249 L-109,251 L-95,249 L-99,253 L-106,256 L-114,256 L-117,253 L-118,249 L-118,229 L-116,221 L-119,224 L-127,241 L-140,251 L-149,255 L-156,254 L-158,250 L-158,235 L-153,220 L-153,218 L-158,223 L-164,230 L-178,239 L-184,241 L-190,241 L-192,239 L-192,229 L-188,217 L-181,205 L-175,196 L-184,198 L-195,204 L-211,215 L-224,226 L-227,226 L-236,237 L-239,239 L-237,233 L-226,212 L-219,201 L-207,185 L-194,169 L-179,153 L-171,146 L-159,136 L-143,125 L-127,116 L-114,110 L-90,103 L-77,101 L-46,101 L-29,104 L-14,110 L-9,112 L-16,104 L-29,96 L-42,92 L-56,89 L-72,88 L-66,81 L-56,72 L-51,67 L-44,59 L-34,46 L-21,28 L-31,30 L-35,30 L-33,26 L-19,12 L-5,2 Z " transform="translate(527,173)" style="fill: #2D648B;"/><path d="M0,0 L4,1 L5,2 L5,99 L-39,110 L-67,117 L-87,122 L-140,135 L-159,140 L-180,145 L-200,150 L-235,159 L-289,172 L-303,176 L-329,182 L-389,197 L-398,199 L-402,199 L-403,149 L-403,86 L-396,84 L-381,81 L-354,75 L-338,72 L-321,68 L-296,63 L-268,57 L-234,50 L-207,44 L-170,36 L-149,32 L-136,29 L-93,20 L-70,15 L-46,10 L-14,3 Z " transform="translate(849,752)" style="fill: #2C546E;"/><path d="M0,0 L26,0 L65,3 L96,7 L116,11 L131,15 L162,24 L187,33 L210,43 L227,51 L246,61 L256,67 L274,78 L293,91 L303,99 L316,109 L324,116 L338,128 L346,136 L354,143 L361,151 L370,160 L377,169 L382,174 L393,188 L405,204 L417,221 L429,241 L439,258 L450,281 L457,296 L467,321 L477,351 L483,374 L487,391 L490,407 L493,427 L495,456 L496,460 L496,503 L494,535 L490,565 L489,567 L487,579 L482,602 L478,615 L474,630 L470,642 L465,654 L460,667 L453,682 L450,689 L442,706 L430,727 L420,743 L408,761 L400,772 L389,787 L388,787 L388,763 L398,749 L407,735 L413,726 L415,721 L421,711 L430,694 L439,675 L445,662 L449,650 L452,642 L455,635 L457,626 L460,617 L466,596 L469,583 L475,546 L477,526 L478,505 L478,471 L477,451 L474,425 L470,399 L459,356 L449,327 L441,308 L433,290 L422,268 L412,251 L402,235 L392,220 L382,207 L371,193 L360,180 L349,168 L323,142 L312,133 L295,119 L276,105 L262,96 L246,86 L236,80 L220,72 L205,64 L180,54 L152,44 L131,38 L125,36 L116,34 L86,28 L54,24 L39,23 L-20,23 L-43,25 L-62,28 L-93,34 L-116,40 L-132,45 L-155,53 L-176,62 L-205,76 L-225,87 L-258,109 L-270,118 L-286,131 L-297,140 L-313,155 L-332,174 L-341,185 L-350,195 L-358,206 L-368,219 L-375,229 L-384,243 L-395,262 L-405,280 L-413,296 L-426,328 L-433,347 L-438,365 L-443,384 L-449,412 L-450,424 L-452,435 L-454,455 L-455,474 L-455,513 L-452,544 L-450,555 L-448,570 L-444,590 L-440,606 L-435,622 L-433,630 L-429,641 L-426,650 L-421,663 L-417,671 L-414,679 L-408,690 L-405,697 L-395,716 L-383,735 L-380,742 L-388,753 L-392,749 L-403,732 L-412,717 L-420,702 L-428,686 L-435,670 L-438,664 L-441,656 L-448,637 L-453,622 L-456,613 L-459,600 L-463,585 L-469,551 L-471,537 L-473,506 L-473,461 L-471,435 L-466,401 L-462,380 L-460,375 L-455,353 L-451,342 L-447,329 L-442,315 L-435,298 L-428,282 L-420,266 L-409,245 L-402,234 L-395,223 L-385,208 L-373,192 L-362,178 L-351,165 L-344,157 L-334,147 L-329,142 L-311,124 L-302,117 L-297,112 L-287,104 L-271,92 L-257,82 L-241,72 L-228,64 L-212,55 L-196,47 L-171,36 L-159,31 L-137,23 L-114,16 L-98,12 L-72,7 L-46,3 L-20,1 Z " transform="translate(501,28)" style="fill: #8DD1E9;"/><path d="M0,0 L9,0 L24,4 L25,5 L25,81 L21,83 L-19,91 L-46,97 L-78,103 L-101,108 L-130,114 L-163,121 L-213,131 L-236,136 L-274,144 L-295,148 L-322,154 L-353,160 L-380,166 L-383,166 L-383,78 L-376,76 L-341,69 L-334,69 L-329,73 L-322,89 L-317,92 L-310,94 L-309,95 L-309,103 L-313,114 L-314,116 L-304,113 L-296,108 L-291,102 L-287,93 L-287,78 L-289,69 L-293,61 L-289,62 L-282,66 L-274,67 L-273,70 L-273,84 L-274,89 L-265,84 L-257,76 L-254,68 L-253,52 L-210,44 L-197,41 L-192,41 L-188,53 L-180,37 L-150,31 L-143,32 L-142,29 L-107,22 L-82,17 L-48,10 L-21,4 Z " transform="translate(826,661)" style="fill: #295874;"/><path d="M0,0 L7,4 L12,5 L32,6 L41,9 L41,10 L30,11 L29,15 L45,16 L39,23 L32,32 L28,41 L25,50 L24,58 L24,75 L26,98 L26,123 L23,141 L21,141 L11,120 L11,118 L9,118 L9,126 L5,142 L-4,158 L-9,163 L-11,163 L-14,148 L-17,139 L-20,126 L-20,152 L-16,169 L-14,178 L-9,175 L-1,167 L5,157 L9,147 L12,135 L14,137 L18,149 L18,158 L14,174 L6,194 L-2,210 L-9,221 L-19,235 L-29,246 L-36,254 L-51,269 L-65,280 L-76,288 L-92,298 L-107,307 L-123,315 L-129,317 L-129,310 L-127,297 L-127,273 L-128,266 L-130,266 L-131,279 L-138,305 L-147,332 L-158,360 L-164,374 L-166,374 L-168,368 L-168,358 L-167,356 L-180,375 L-189,387 L-198,397 L-209,406 L-213,408 L-214,407 L-214,367 L-223,375 L-230,383 L-233,385 L-233,359 L-230,342 L-228,333 L-244,343 L-246,344 L-242,327 L-238,323 L-218,311 L-206,303 L-196,295 L-186,287 L-178,281 L-162,273 L-146,261 L-133,249 L-119,235 L-110,224 L-100,211 L-93,200 L-84,186 L-74,167 L-68,152 L-64,138 L-61,127 L-61,101 L-63,91 L-62,84 L-58,70 L-50,54 L-44,45 L-37,37 L-53,40 L-56,39 L-48,28 L-38,19 L-27,12 L-20,8 L-7,2 Z " transform="translate(629,242)" style="fill: #E6EEF0;"/><path d="M0,0 L14,0 L17,22 L-1,17 L-5,15 L-2,36 L3,49 L6,54 L6,56 L-6,58 L-6,61 L1,72 L10,82 L12,85 L-2,99 L-8,107 L-17,120 L-23,131 L-24,135 L-18,135 L-22,141 L-33,151 L-52,164 L-61,168 L-75,173 L-93,181 L-103,187 L-119,198 L-133,209 L-149,224 L-158,233 L-167,244 L-180,260 L-187,271 L-196,285 L-208,308 L-212,315 L-215,324 L-217,323 L-216,313 L-216,249 L-221,244 L-224,240 L-224,231 L-220,225 L-216,222 L-216,156 L-222,153 L-226,145 L-226,136 L-222,130 L-218,127 L-215,126 L-207,126 L-201,129 L-197,127 L-184,117 L-170,106 L-164,102 L-152,92 L-140,83 L-136,82 L-107,82 L-106,76 L-99,69 L-95,67 L-95,22 L-97,21 L-81,16 L-64,11 L-28,4 Z " transform="translate(474,89)" style="fill: #235F80;"/><path d="M0,0 L1,0 L1,16 L-4,40 L-9,56 L-15,72 L-24,89 L-25,92 L-13,85 L-11,84 L-12,91 L-16,103 L-17,105 L-15,105 L-15,107 L-5,100 L4,91 L5,95 L3,106 L1,112 L11,98 L18,87 L21,71 L25,65 L26,65 L26,91 L35,84 L42,78 L48,70 L52,68 L57,59 L58,62 L49,86 L47,88 L43,99 L36,111 L30,122 L10,142 L-4,153 L-15,161 L-31,171 L-46,180 L-62,188 L-68,190 L-68,183 L-66,170 L-66,146 L-67,139 L-69,139 L-70,152 L-77,178 L-86,205 L-97,233 L-103,247 L-105,247 L-107,241 L-107,231 L-106,229 L-119,248 L-128,260 L-137,270 L-148,279 L-152,281 L-153,280 L-153,240 L-162,248 L-169,256 L-172,258 L-172,232 L-169,215 L-167,206 L-183,216 L-185,217 L-181,200 L-177,196 L-157,184 L-145,176 L-135,168 L-125,160 L-117,154 L-101,146 L-85,134 L-72,122 L-58,108 L-49,97 L-39,84 L-32,73 L-23,59 L-13,40 L-7,25 L-3,11 Z " transform="translate(568,369)" style="fill: #8FB5C4;"/><path d="M0,0 L5,1 L7,5 L9,18 L9,32 L7,44 L8,54 L9,58 L9,76 L7,87 L3,91 L-21,97 L-48,104 L-69,109 L-95,115 L-110,119 L-131,124 L-139,125 L-142,122 L-142,33 L-139,30 L-116,25 L-76,16 L-50,11 L-35,7 L-16,3 Z " transform="translate(614,815)" style="fill: #182530;"/><path d="M0,0 L7,6 L17,15 L25,22 L33,28 L54,44 L64,50 L74,57 L96,70 L112,78 L127,86 L147,94 L163,100 L187,108 L201,112 L220,116 L236,120 L267,124 L290,126 L350,126 L375,124 L404,119 L421,115 L432,112 L440,110 L455,106 L468,102 L474,99 L494,92 L503,88 L528,76 L546,66 L566,54 L585,41 L593,35 L609,23 L622,12 L630,8 L650,3 L653,3 L653,5 L642,14 L631,24 L620,33 L606,44 L591,55 L576,65 L556,77 L538,87 L514,99 L489,109 L478,114 L465,118 L438,126 L412,132 L382,137 L367,139 L334,141 L292,141 L253,137 L219,131 L195,125 L174,119 L167,116 L153,112 L143,108 L132,103 L121,99 L105,91 L84,80 L63,67 L52,60 L35,48 L23,39 L11,29 L3,22 L-7,13 L-15,6 L-14,4 L-2,1 Z " transform="translate(195,858)" style="fill: #427FC5;"/><path d="M0,0 L115,0 L114,5 L109,24 L108,35 L105,40 L100,44 L95,49 L86,59 L77,69 L68,80 L61,90 L54,104 L52,109 L44,116 L33,129 L24,143 L22,141 L18,129 L12,109 L8,90 L4,69 L1,49 L0,38 Z " transform="translate(87,516)" style="fill: #143D5E;"/><path d="M0,0 L5,2 L16,6 L34,11 L50,13 L66,14 L72,15 L88,16 L120,22 L143,30 L161,40 L174,50 L185,62 L190,70 L192,75 L192,82 L183,80 L179,72 L177,71 L177,84 L166,94 L165,94 L164,85 L158,75 L155,73 L158,80 L158,88 L155,89 L139,81 L125,72 L113,66 L101,61 L94,59 L74,58 L74,60 L81,61 L90,65 L88,67 L67,70 L42,70 L30,67 L21,65 L6,62 L-8,57 L-7,55 L14,50 L20,48 L17,46 L3,42 L-6,36 L-8,33 L34,33 L42,32 L26,27 L16,21 L6,12 L0,4 Z " transform="translate(515,103)" style="fill: #347499;"/><path d="M0,0 L6,0 L8,3 L9,44 L9,60 L4,66 L-80,86 L-101,91 L-107,91 L-110,88 L-110,27 L-106,23 L-90,19 L-9,2 Z " transform="translate(742,789)" style="fill: #123349;"/><path d="M0,0 L11,1 L37,9 L51,13 L116,32 L164,46 L185,52 L187,54 L164,58 L120,66 L80,74 L54,79 L50,79 L50,64 L47,56 L44,51 L36,46 L30,43 L22,38 L19,33 L13,29 L6,27 L-6,27 L-17,31 L-27,33 L-37,33 L-46,30 L-57,21 L-65,14 L-65,12 L-44,8 Z " transform="translate(636,605)" style="fill: #4F8BAB;"/><path d="M0,0 L6,1 L42,13 L74,24 L74,111 L60,106 L58,105 L58,26 L56,25 L56,104 L46,101 L18,91 L-26,75 L-32,72 L-30,68 L-21,53 L-14,38 L-8,21 L-5,15 L-1,1 Z " transform="translate(361,714)" style="fill: #1D3953;"/><path d="M0,0 L2,0 L3,12 L7,18 L10,20 L20,21 L32,16 L41,10 L43,10 L47,18 L52,22 L64,22 L73,19 L83,12 L86,9 L89,10 L92,16 L98,21 L105,23 L117,20 L123,17 L123,19 L121,20 L117,28 L110,38 L101,49 L91,60 L79,69 L71,74 L61,76 L64,67 L72,51 L86,24 L88,17 L75,33 L66,45 L60,52 L55,57 L45,66 L30,75 L18,79 L16,79 L17,70 L28,47 L36,32 L41,20 L41,16 L33,30 L26,39 L20,47 L18,48 L16,52 L3,65 L-12,75 L-23,79 L-28,79 L-28,72 L-23,59 L-7,28 L-2,20 L1,10 L-1,10 L-3,15 L-13,30 L-22,42 L-26,47 L-34,54 L-44,62 L-56,68 L-60,67 L-60,58 L-56,45 L-48,29 L-38,13 L-32,3 L-27,5 L-24,7 L-15,7 L-6,4 Z " transform="translate(357,417)" style="fill: #224D70;"/><path d="M0,0 L1,2 L-6,13 L-16,27 L-26,42 L-35,55 L-44,69 L-52,80 L-60,92 L-71,109 L-78,120 L-85,130 L-85,132 L-76,120 L-62,101 L-54,91 L-41,73 L-31,60 L-22,47 L-18,41 L-9,34 L3,30 L7,28 L5,33 L-3,45 L-19,69 L-31,87 L-39,98 L-45,107 L-53,118 L-61,129 L-63,129 L-65,133 L-73,143 L-87,158 L-95,165 L-108,176 L-124,186 L-137,192 L-146,194 L-153,194 L-152,190 L-138,171 L-131,161 L-119,145 L-111,134 L-103,123 L-95,112 L-81,93 L-72,81 L-60,65 L-46,46 L-37,34 L-25,17 L-19,9 L-3,1 Z " transform="translate(269,627)" style="fill: #316F9A;"/><path d="M0,0 L2,0 L3,9 L7,13 L12,14 L12,16 L-9,27 L-23,34 L-39,42 L-60,52 L-84,63 L-107,73 L-119,78 L-132,84 L-152,92 L-169,99 L-190,107 L-206,112 L-204,107 L-195,96 L-182,84 L-174,78 L-161,70 L-148,62 L-135,54 L-116,42 L-94,28 L-76,17 L-54,16 L-42,13 L-37,13 L-41,17 L-52,24 L-63,30 L-79,40 L-93,48 L-116,61 L-139,74 L-150,80 L-145,79 L-134,75 L-122,70 L-101,60 L-82,50 L-61,38 L-39,25 L-21,14 L-4,3 Z " transform="translate(342,554)" style="fill: #1E3C5A;"/><path d="M0,0 L3,1 L-13,12 L-32,24 L-57,38 L-74,46 L-95,55 L-114,62 L-135,69 L-161,76 L-195,82 L-236,86 L-266,86 L-290,85 L-315,82 L-321,81 L-319,79 L-290,72 L-286,71 L-227,70 L-192,66 L-168,61 L-145,56 L-118,47 L-97,39 L-87,35 L-72,28 L-44,13 L-36,9 Z " transform="translate(769,880)" style="fill: #4B90CC;"/><path d="M0,0 L6,0 L8,2 L8,9 L4,13 L-1,13 L-3,11 L-19,13 L-28,15 L-32,20 L-32,30 L-28,34 L-29,41 L-33,43 L-32,53 L-29,55 L-29,57 L-12,53 L-4,53 L-3,49 L1,46 L6,47 L9,50 L8,56 L3,60 L-2,59 L-4,57 L-17,59 L-28,60 L-30,65 L-32,67 L-38,67 L-41,64 L-57,67 L-63,67 L-65,72 L-69,75 L-74,74 L-77,70 L-78,66 L-93,56 L-96,56 L-98,57 L-104,57 L-106,62 L-117,76 L-119,78 L-128,79 L-129,84 L-132,87 L-138,87 L-141,84 L-141,78 L-138,74 L-130,74 L-129,75 L-121,74 L-114,66 L-107,57 L-105,57 L-107,52 L-108,45 L-121,35 L-128,35 L-133,40 L-139,39 L-141,36 L-140,29 L-136,26 L-130,27 L-128,30 L-119,31 L-108,40 L-105,42 L-95,42 L-83,28 L-78,23 L-75,16 L-73,14 L-66,14 L-64,16 L-52,15 L-48,14 L-41,14 L-40,10 L-38,7 L-31,7 L-29,11 L-23,9 L-5,6 L-2,1 Z " transform="translate(757,693)" style="fill: #67D1E2;"/><path d="M0,0 L20,0 L38,6 L48,12 L59,18 L74,27 L83,30 L83,22 L81,18 L81,15 L85,17 L91,27 L91,34 L88,41 L87,42 L77,42 L75,48 L68,48 L59,56 L52,59 L47,60 L37,60 L27,56 L17,47 L10,37 L7,28 L5,28 L8,41 L12,49 L18,57 L13,55 L4,48 L-3,40 L-10,33 L-24,25 L-40,18 L-48,13 L-48,10 L-44,8 L-32,11 L-7,11 L14,8 L10,5 L0,2 Z " transform="translate(589,161)" style="fill: #05111D;"/><path d="M0,0 L10,1 L9,6 L4,17 L-2,34 L-17,69 L-24,84 L-32,100 L-42,119 L-48,128 L-55,138 L-59,143 L-61,143 L-63,147 L-74,157 L-87,165 L-92,167 L-95,166 L-90,155 L-84,139 L-78,128 L-64,106 L-58,95 L-47,76 L-36,56 L-31,45 L-22,28 L-16,15 L-9,7 Z " transform="translate(324,663)" style="fill: #1E3E5E;"/><path d="M0,0 L1,0 L0,13 L-7,39 L-16,66 L-27,94 L-33,108 L-35,108 L-37,102 L-37,92 L-36,90 L-49,109 L-58,121 L-61,123 L-58,111 L-55,105 L-55,103 L-63,113 L-68,118 L-72,121 L-75,98 L-75,78 L-72,74 L-70,74 L-70,89 L-69,93 L-63,93 L-54,86 L-48,78 L-45,72 L-52,79 L-60,84 L-64,84 L-64,70 L-58,54 L-49,35 L-47,35 L-46,51 L-45,54 L-39,55 L-31,50 L-24,41 L-20,35 L-28,41 L-36,47 L-40,47 L-41,42 L-41,33 L-35,28 L-16,14 L-5,4 L-1,2 Z " transform="translate(498,508)" style="fill: #F8FBFA;"/><path d="M0,0 L2,0 L11,16 L11,19 L3,21 L3,23 L14,22 L19,30 L19,32 L12,34 L9,38 L17,36 L22,36 L27,43 L27,45 L20,47 L19,50 L29,48 L36,55 L52,63 L55,64 L71,65 L70,74 L74,69 L77,66 L88,66 L88,68 L86,68 L85,76 L85,78 L87,78 L89,73 L94,69 L99,71 L103,74 L103,76 L97,79 L94,85 L93,92 L89,91 L83,84 L76,82 L64,80 L45,71 L38,69 L43,74 L48,78 L48,80 L43,84 L41,88 L50,83 L55,84 L60,89 L55,92 L53,97 L61,93 L66,94 L74,102 L75,105 L65,107 L61,113 L60,118 L56,116 L51,104 L42,96 L28,87 L14,78 L12,78 L4,80 L-12,81 L-14,82 L-22,82 L-24,80 L-24,72 L-22,64 L-21,63 L-13,63 L-12,66 L-13,72 L-9,72 L-8,65 L5,67 L6,69 L9,66 L11,62 L11,55 L5,44 L-10,19 L-11,15 L-5,8 Z " transform="translate(455,627)" style="fill: #E29949;"/><path d="M0,0 L5,0 L5,113 L-12,118 L-19,119 L-24,116 L-25,49 L-25,13 L-22,6 L-18,4 Z " transform="translate(435,840)" style="fill: #356181;"/><path d="M0,0 L3,0 L7,22 L9,25 L16,24 L32,14 L34,12 L37,12 L47,27 L53,37 L56,43 L48,42 L45,41 L31,41 L19,45 L11,52 L7,60 L6,64 L6,73 L7,79 L-4,76 L-33,66 L-35,65 L-32,55 L-21,20 L-16,3 L-14,2 L-13,9 L-4,4 L-2,4 L-2,2 L0,2 Z " transform="translate(399,641)" style="fill: #264662;"/><path d="M0,0 L11,0 L18,4 L22,9 L24,14 L24,24 L21,30 L15,35 L10,36 L10,162 L3,170 L-39,212 L-135,212 L-136,215 L-135,205 L-42,205 L-40,201 L-35,197 L-28,189 L1,160 L2,155 L2,37 L-5,33 L-11,26 L-12,23 L-12,14 L-8,6 Z " transform="translate(223,277)" style="fill: #407FA1;"/><path d="M0,0 L16,2 L27,12 L41,23 L53,32 L58,35 L68,42 L87,53 L109,65 L131,75 L143,80 L164,88 L185,94 L185,109 L180,108 L149,99 L120,87 L95,75 L76,65 L57,53 L45,45 L26,31 L11,18 L1,10 L-5,6 Z " transform="translate(217,842)" style="fill: #4C90C7;"/><path d="M0,0 L4,2 L13,10 L13,12 L9,15 L8,18 L15,14 L19,16 L24,21 L18,26 L21,27 L26,24 L30,26 L35,31 L31,34 L29,34 L29,38 L36,35 L43,36 L51,41 L72,48 L89,50 L90,55 L94,50 L104,49 L104,56 L106,56 L108,49 L109,48 L119,48 L119,52 L118,54 L118,61 L120,69 L112,69 L103,65 L98,63 L92,58 L88,56 L68,54 L52,50 L57,55 L61,58 L57,64 L63,60 L69,60 L71,61 L69,68 L77,62 L86,63 L88,64 L88,66 L83,69 L81,72 L81,82 L75,82 L67,76 L58,74 L43,66 L36,64 L15,64 L5,69 L-1,69 L-5,65 L-4,56 L-1,52 L7,53 L16,53 L22,51 L23,49 L23,41 L14,31 L0,19 L-6,14 L-4,8 Z " transform="translate(539,604)" style="fill: #DE8C3D;"/><path d="M0,0 L2,0 L-2,16 L-6,31 L-6,34 L10,26 L14,25 L13,40 L5,48 L-6,57 L-17,65 L-27,71 L-29,70 L-19,54 L-16,44 L-23,52 L-35,64 L-47,73 L-63,84 L-64,84 L-63,76 L-60,64 L-53,45 L-47,30 L-44,23 L-27,15 L-11,6 Z " transform="translate(369,577)" style="fill: #9CBDCB;"/><path d="M0,0 L8,0 L17,6 L18,9 L12,14 L7,24 L-1,31 L-6,34 L-2,34 L6,31 L11,27 L19,15 L23,14 L28,19 L35,29 L37,36 L37,59 L33,70 L31,74 L29,74 L27,64 L24,57 L17,51 L6,49 L-11,44 L-17,43 L-45,43 L-51,44 L-23,47 L-1,53 L13,60 L13,62 L1,62 L-13,59 L-23,53 L-33,50 L-56,48 L-59,46 L-57,42 L-48,39 L-27,35 L-19,32 L-15,27 L-11,11 L-3,2 Z " transform="translate(696,193)" style="fill: #E4A256;"/><path d="M0,0 L3,1 L6,7 L12,12 L19,14 L31,11 L37,8 L37,10 L35,11 L31,19 L24,29 L15,40 L5,51 L-7,60 L-15,65 L-25,67 L-22,58 L-14,42 L0,15 L2,8 L-11,24 L-20,36 L-26,43 L-31,48 L-41,57 L-56,66 L-68,70 L-70,69 L-65,64 L-56,56 L-49,48 L-45,42 L-40,37 L-34,28 L-27,15 L-31,14 L-17,12 L-4,4 Z " transform="translate(443,426)" style="fill: #254F73;"/><path d="M0,0 L1,2 L-10,34 L-15,50 L-20,66 L-26,84 L-22,76 L-11,50 L-5,35 L0,23 L7,17 L8,21 L0,46 L-6,63 L-9,71 L-16,90 L-27,113 L-37,126 L-45,133 L-58,139 L-60,139 L-58,130 L-53,117 L-46,103 L-40,90 L-28,62 L-21,45 L-10,18 L-8,13 L-5,4 Z " transform="translate(351,656)" style="fill: #2C5276;"/><path d="M0,0 L9,0 L24,4 L25,5 L25,81 L21,82 L21,8 L-8,14 L-38,19 L-72,25 L-97,30 L-146,39 L-177,45 L-182,45 L-181,40 L-180,37 L-150,31 L-143,32 L-142,29 L-107,22 L-82,17 L-48,10 L-21,4 Z " transform="translate(826,661)" style="fill: #5389A9;"/><path d="M0,0 L4,1 L5,6 L2,5 L2,10 L1,6 L-27,12 L-42,15 L-55,18 L-93,26 L-112,30 L-131,34 L-173,43 L-193,47 L-216,52 L-231,55 L-243,58 L-267,63 L-306,71 L-328,76 L-343,79 L-356,82 L-385,88 L-400,91 L-402,92 L-402,86 L-396,84 L-381,81 L-354,75 L-338,72 L-321,68 L-296,63 L-268,57 L-234,50 L-207,44 L-170,36 L-149,32 L-136,29 L-93,20 L-70,15 L-46,10 L-14,3 Z " transform="translate(849,752)" style="fill: #8DCBE4;"/><path d="M0,0 L2,0 L4,10 L22,10 L20,14 L6,24 L-5,32 L-14,37 L-16,37 L-16,39 L-25,44 L-41,52 L-54,57 L-69,61 L-88,61 L-89,58 L-68,46 L-49,33 L-47,33 L-46,30 L-35,22 L-23,11 L-11,7 Z " transform="translate(358,497)" style="fill: #284E70;"/><path d="M0,0 L7,0 L9,1 L9,94 L5,98 L-12,102 L-12,3 Z " transform="translate(872,747)" style="fill: #3A6484;"/><path d="M0,0 L2,0 L5,6 L5,19 L4,26 L2,28 L-13,32 L-39,38 L-49,41 L-58,43 L-66,45 L-70,45 L-69,38 L-69,22 L-71,17 L-34,8 L-19,5 L-7,2 Z " transform="translate(577,881)" style="fill: #41525F;"/><path d="M0,0 L1,0 L1,11 L3,16 L7,18 L5,22 L0,25 L-13,35 L-30,46 L-40,52 L-59,60 L-72,63 L-82,63 L-84,62 L-82,58 L-71,49 L-66,45 L-58,38 L-41,22 L-26,8 L-14,7 Z " transform="translate(316,490)" style="fill: #336085;"/><path d="M0,0 L4,1 L5,3 L5,26 L3,28 L-25,34 L-59,42 L-69,44 L-68,37 L-68,28 L-69,18 L-70,16 L-55,12 L-39,9 L-26,6 Z " transform="translate(576,837)" style="fill: #42535F;"/><path d="M0,0 L31,0 L40,2 L40,3 L20,4 L-1,8 L-17,13 L-33,19 L-49,27 L-67,38 L-82,50 L-92,58 L-104,69 L-117,82 L-126,93 L-136,105 L-145,117 L-152,128 L-161,138 L-161,135 L-152,116 L-144,103 L-134,89 L-121,73 L-114,65 L-103,53 L-93,44 L-79,33 L-66,24 L-50,15 L-37,9 L-13,2 Z " transform="translate(450,274)" style="fill: #9DDAEC;"/><path d="M0,0 L1,0 L3,13 L9,15 L8,18 L2,23 L-12,42 L-15,48 L15,18 L20,12 L25,10 L24,29 L20,34 L15,39 L-1,54 L-11,63 L-19,70 L-25,74 L-33,80 L-38,83 L-40,83 L-38,74 L-32,56 L-25,40 L-15,23 L-5,7 Z " transform="translate(261,461)" style="fill: #2E658D;"/><path d="M0,0 L1,3 L-3,11 L-9,25 L-22,35 L-41,48 L-55,56 L-65,61 L-76,63 L-83,62 L-83,60 L-63,51 L-51,43 L-38,33 L-31,26 L-30,23 L-36,27 L-49,36 L-65,45 L-76,49 L-81,49 L-78,42 L-71,35 L-60,26 L-53,20 L-45,13 L-37,5 L-33,10 L-30,11 L-17,9 L-1,1 Z " transform="translate(442,495)" style="fill: #264464;"/><path d="M0,0 L2,0 L2,8 L-8,23 L-20,40 L-25,46 L-33,53 L-43,61 L-55,67 L-59,66 L-59,57 L-55,44 L-47,28 L-37,12 L-31,2 L-26,4 L-23,6 L-14,6 L-5,3 Z " transform="translate(356,418)" style="fill: #2C6790;"/><path d="M0,0 L1,2 L-7,22 L-13,42 L-17,58 L-19,56 L-21,40 L-35,66 L-46,80 L-50,85 L-54,66 L-54,57 L-59,62 L-66,70 L-68,70 L-69,73 L-70,73 L-70,57 L-65,54 L-51,46 L-34,34 L-27,27 L-39,31 L-47,34 L-50,33 L-36,25 L-13,9 L-3,2 Z " transform="translate(563,539)" style="fill: #A2C1CD;"/><path d="M0,0 L8,0 L2,8 L-2,15 L-6,19 L-15,33 L-24,46 L-31,56 L-42,71 L-49,81 L-59,95 L-65,103 L-76,118 L-81,126 L-86,131 L-96,145 L-106,158 L-110,163 L-112,164 L-119,164 L-118,160 L-104,141 L-97,131 L-85,115 L-77,104 L-69,93 L-61,82 L-47,63 L-38,51 L-26,35 L-12,16 L-3,4 Z " transform="translate(235,657)" style="fill: #99E2F2;"/><path d="M0,0 L3,1 L-9,17 L-21,33 L-31,47 L-41,61 L-45,59 L-52,45 L-62,26 L-64,22 L-64,19 L-45,17 L-26,10 L-10,4 Z " transform="translate(188,674)" style="fill: #0B2B48;"/><path d="M0,0 L2,0 L0,5 L-8,17 L-24,41 L-36,59 L-44,70 L-50,79 L-58,90 L-63,97 L-64,97 L-66,84 L-67,80 L-71,80 L-69,76 L-59,63 L-46,45 L-36,32 L-27,19 L-23,13 L-14,6 L-2,2 Z " transform="translate(274,655)" style="fill: #346993;"/><path d="M0,0 L95,0 L95,6 L4,7 L-36,47 L-36,56 L-39,61 L-42,63 L-52,63 L-57,57 L-57,48 L-52,42 L-41,41 L-36,36 L-25,25 L-23,25 L-21,21 Z " transform="translate(843,538)" style="fill: #92ECF5;"/><path d="M0,0 L2,1 L-2,11 L-3,14 L-3,26 L-13,38 L-21,48 L-28,56 L-36,63 L-45,71 L-52,75 L-56,75 L-55,66 L-52,56 L-45,45 L-34,32 L-27,24 L-19,17 L-11,9 Z " transform="translate(328,389)" style="fill: #2C6991;"/><path d="M0,0 L3,0 L10,17 L14,15 L17,14 L19,10 L26,2 L27,0 L31,1 L46,14 L53,21 L53,22 L45,21 L35,21 L32,23 L23,25 L15,32 L-7,30 L-15,27 L-23,13 L-25,10 L-25,7 L-16,5 L-15,8 L-9,4 L-5,1 Z " transform="translate(499,627)" style="fill: #4B7F9C;"/><path d="M0,0 L9,3 L31,9 L47,11 L63,12 L69,13 L85,14 L117,20 L140,28 L158,38 L171,48 L182,60 L187,68 L189,73 L189,80 L186,79 L182,69 L174,59 L164,50 L155,44 L134,34 L111,27 L89,23 L53,20 L28,16 L12,9 L1,2 Z " transform="translate(518,105)" style="fill: #AEE6EE;"/><path d="M0,0 L11,1 L37,9 L51,13 L116,32 L164,46 L185,52 L187,54 L180,55 L171,55 L147,48 L127,42 L108,36 L99,34 L86,30 L46,18 L5,6 L-3,6 L-32,11 L-57,15 L-64,15 L-65,12 L-44,8 Z " transform="translate(636,605)" style="fill: #9CD8E7;"/><path d="M0,0 L4,2 L9,6 L11,7 L24,7 L30,4 L36,3 L47,3 L58,6 L68,12 L73,14 L81,16 L89,21 L101,21 L105,21 L103,23 L80,28 L50,34 L46,34 L40,22 L33,16 L20,12 L-8,10 L-6,5 L-2,1 Z " transform="translate(524,673)" style="fill: #2D506A;"/><path d="M0,0 L9,2 L15,4 L15,91 L1,86 L-1,85 Z " transform="translate(420,734)" style="fill: #274966;"/><path d="M0,0 L1,4 L1,17 L3,22 L13,22 L20,17 L22,17 L24,13 L27,11 L25,17 L21,23 L18,24 L15,29 L9,32 L1,32 L-5,29 L-6,31 L-7,29 L-12,41 L-14,47 L-16,57 L-25,65 L-33,67 L-41,67 L-41,65 L-33,58 L-25,47 L-18,36 L-14,23 L-19,28 L-29,35 L-32,36 L-41,36 L-46,31 L-47,29 L-47,17 L-42,7 L-39,5 L-39,23 L-37,27 L-30,27 L-18,21 L-12,17 L-10,17 Z " transform="translate(459,357)" style="fill: #0C2742;"/><path d="M0,0 L6,0 L8,2 L8,9 L4,13 L-1,13 L-3,11 L-19,13 L-28,15 L-32,20 L-32,30 L-28,34 L-29,41 L-33,43 L-32,53 L-29,55 L-29,57 L-12,53 L-4,53 L-3,49 L1,46 L6,47 L9,50 L8,56 L3,60 L-2,59 L-4,57 L-17,59 L-28,60 L-30,65 L-32,67 L-38,67 L-41,64 L-41,58 L-38,54 L-38,44 L-41,41 L-41,34 L-37,30 L-36,20 L-40,19 L-40,17 L-63,22 L-65,26 L-67,27 L-74,27 L-76,25 L-76,17 L-73,14 L-66,14 L-64,16 L-52,15 L-48,14 L-41,14 L-40,10 L-38,7 L-31,7 L-29,11 L-23,9 L-5,6 L-2,1 Z " transform="translate(757,693)" style="fill: #70DDE9;"/><path d="M0,0 L5,1 L6,2 L7,26 L8,31 L7,32 L6,39 L2,42 L-19,47 L-22,46 L-22,6 L-19,4 Z " transform="translate(835,797)" style="fill: #2A3642;"/><path d="M0,0 L7,0 L15,4 L21,11 L22,19 L19,27 L13,34 L7,36 L0,36 L-8,32 L-11,28 L-36,27 L-36,20 L-14,20 L-14,13 L-10,6 L-5,2 Z " transform="translate(141,536)" style="fill: #447FA3;"/><path d="M0,0 L6,0 L9,2 L9,9 L5,12 L0,11 L-7,9 L-52,10 L-57,15 L-57,84 L-67,82 L-66,67 L-66,13 L-58,5 L-55,2 L-1,1 Z " transform="translate(799,529)" style="fill: #4C92B6;"/><path d="M0,0 L3,1 L4,8 L0,10 L-10,23 L-20,36 L-26,43 L-31,48 L-41,57 L-56,66 L-68,70 L-70,69 L-65,64 L-56,56 L-49,48 L-45,42 L-40,37 L-34,28 L-27,15 L-31,14 L-17,12 L-4,4 Z " transform="translate(443,426)" style="fill: #1E3D5C;"/><path d="M0,0 L9,1 L14,4 L19,9 L19,13 L53,13 L54,20 L19,20 L17,26 L12,31 L7,33 L-1,33 L-9,28 L-12,23 L-13,15 L-10,6 L-3,1 Z " transform="translate(879,429)" style="fill: #387296;"/><path d="M0,0 L2,0 L0,5 L-4,13 L-4,23 L5,20 L11,17 L9,21 L1,29 L-4,32 L-10,32 L-11,30 L-11,21 L-19,27 L-32,36 L-44,42 L-54,43 L-57,40 L-56,30 L-48,14 L-40,5 L-38,5 L-40,11 L-44,21 L-44,28 L-30,21 L-16,12 L-5,4 Z " transform="translate(411,321)" style="fill: #010E24;"/><path d="M0,0 L6,0 L3,3 L-6,9 L-10,14 L2,14 L1,17 L-7,23 L-11,28 L-13,33 L-5,31 L3,31 L1,36 L-3,40 L-5,45 L-5,48 L1,46 L7,46 L2,56 L19,56 L15,59 L10,61 L-2,61 L-2,63 L-11,63 L-18,59 L-19,57 L-19,47 L-17,42 L-24,43 L-22,34 L-17,24 L-13,19 L-21,19 L-19,14 L-13,7 Z " transform="translate(553,198)" style="fill: #041329;"/><path d="M0,0 L25,0 L37,3 L48,9 L57,17 L64,30 L67,43 L67,58 L65,68 L64,68 L63,52 L60,40 L53,26 L44,17 L30,11 L23,9 L-4,9 L-29,13 L-41,16 L-48,18 L-50,17 L-38,11 L-24,6 L-6,1 Z " transform="translate(489,302)" style="fill: #85C3DB;"/><path d="M0,0 L1,2 L-6,13 L-16,27 L-26,42 L-35,55 L-44,69 L-52,80 L-60,92 L-69,95 L-72,96 L-70,92 L-62,80 L-54,69 L-44,54 L-38,45 L-36,45 L-34,40 L-27,31 L-33,30 L-31,25 L-23,14 L-18,8 Z " transform="translate(269,627)" style="fill: #20486C;"/><path d="M0,0 L6,0 L9,2 L9,78 L7,80 L0,80 L-3,78 L-3,2 Z " transform="translate(794,410)" style="fill: #50DAF1;"/><path d="M0,0 L7,1 L8,2 L8,9 L3,14 L-2,16 L-11,29 L-10,30 L-4,30 L-3,26 L0,23 L7,24 L12,25 L23,23 L26,22 L29,18 L36,18 L38,21 L37,28 L34,30 L28,30 L25,28 L14,30 L8,30 L7,34 L5,36 L-1,36 L-5,33 L-13,34 L-6,42 L-2,47 L6,47 L8,49 L8,57 L4,60 L-1,60 L-4,57 L-4,50 L-13,41 L-16,37 L-25,37 L-26,41 L-28,43 L-34,43 L-37,40 L-37,33 L-33,30 L-27,30 L-25,32 L-17,31 L-8,18 L-4,13 L-4,5 Z " transform="translate(790,686)" style="fill: #71DBE2;"/><path d="M0,0 L3,1 L9,11 L12,25 L12,47 L6,68 L-1,82 L-9,97 L-15,105 L-17,105 L-14,95 L-10,84 L-5,66 L-3,56 L-2,55 L1,33 L1,7 Z M-18,105 Z " transform="translate(666,333)" style="fill: #1A3E63;"/><path d="M0,0 L4,1 L-10,8 L-20,15 L-31,24 L-39,35 L-27,33 L-20,32 L-26,40 L-32,48 L-40,64 L-45,78 L-47,78 L-47,65 L-45,57 L-41,47 L-40,45 L-53,47 L-56,48 L-53,39 L-47,29 L-40,21 L-33,15 L-20,7 L-15,5 L-12,5 L-12,3 Z " transform="translate(613,246)" style="fill: #071F39;"/><path d="M0,0 L1,0 L1,14 L-6,25 L-12,36 L-16,42 L-25,61 L-26,66 L-3,51 L3,47 L6,47 L-2,55 L-10,62 L-20,71 L-25,74 L-33,80 L-38,83 L-40,83 L-38,74 L-32,56 L-25,40 L-15,23 L-5,7 Z " transform="translate(261,461)" style="fill: #92D8EC;"/><path d="M0,0 L4,1 L-7,10 L-14,18 L-18,22 L-8,21 L-10,26 L-26,49 L-36,63 L-47,76 L-56,84 L-61,87 L-70,87 L-64,80 L-54,71 L-49,66 L-42,58 L-32,45 L-19,27 L-29,29 L-33,29 L-31,25 L-17,11 L-3,1 Z " transform="translate(525,174)" style="fill: #A5E2EF;"/><path d="M0,0 L2,0 L7,6 L16,9 L14,15 L9,23 L0,36 L-2,36 L-4,41 L-9,47 L-14,52 L-25,61 L-27,63 L-26,55 L-15,32 L-7,17 Z " transform="translate(400,432)" style="fill: #356A93;"/><path d="M0,0 L3,0 L3,2 L7,3 L7,13 L3,17 L2,20 L-18,24 L-21,24 L-23,21 L-29,21 L-33,26 L-45,29 L-51,29 L-51,27 L-44,21 L-37,13 L-32,8 L-31,9 L-22,9 L-20,4 Z " transform="translate(714,710)" style="fill: #21516F;"/><path d="M0,0 L4,0 L11,27 L12,29 L17,11 L21,11 L24,17 L35,16 L46,13 L51,13 L50,18 L30,22 L22,23 L20,20 L14,42 L10,43 L7,34 L3,16 L3,13 L1,13 L0,22 L-2,29 L-9,31 L-13,41 L-17,40 L-23,28 L-28,36 L-43,40 L-48,40 L-47,36 L-41,34 L-31,32 L-25,20 L-21,21 L-16,31 L-16,33 L-14,33 L-13,28 L-12,26 L-6,25 L-2,9 Z " transform="translate(689,810)" style="fill: #75E4C2;"/><path d="M0,0 L5,4 L5,14 L1,20 L-18,24 L-23,23 L-24,22 L-31,22 L-34,23 L-51,12 L-51,10 L-37,7 L-33,7 L-30,10 L-23,9 L-21,4 Z " transform="translate(715,733)" style="fill: #20506F;"/><path d="M0,0 L6,0 L8,3 L-1,6 L-13,8 L-29,12 L-65,20 L-79,23 L-91,26 L-91,60 L-99,61 L-99,22 L-84,18 L-40,9 L-9,2 Z " transform="translate(577,828)" style="fill: #708799;"/><path d="M0,0 L7,0 L11,3 L11,5 L-30,13 L-36,13 L-37,96 L-42,97 L-42,9 L-35,7 Z " transform="translate(485,730)" style="fill: #497796;"/><path d="M0,0 L2,0 L7,5 L15,7 L25,5 L45,4 L60,12 L56,14 L21,21 L15,20 L-8,12 L-7,7 L-2,1 Z " transform="translate(421,711)" style="fill: #2E536D;"/><path d="M0,0 L2,0 L0,5 L-10,20 L-19,34 L-25,43 L-30,46 L-42,50 L-47,53 L-45,49 L-38,38 L-29,25 L-19,10 L-10,4 Z M-48,53 Z M-49,54 Z M-50,55 Z " transform="translate(302,612)" style="fill: #1D3C5F;"/><path d="M0,0 L2,1 L-2,10 L-14,32 L-17,38 L-18,43 L-33,53 L-34,53 L-33,45 L-30,33 L-23,14 L-20,11 L-20,13 L-10,6 Z " transform="translate(339,608)" style="fill: #F8F9F8;"/><path d="M0,0 L7,1 L15,6 L36,13 L53,15 L54,20 L58,15 L68,14 L68,21 L70,21 L72,14 L73,13 L83,13 L83,17 L82,19 L82,26 L84,34 L76,34 L67,30 L62,28 L56,23 L50,20 L38,17 L22,13 L9,9 L1,4 L1,2 L-1,1 Z " transform="translate(575,639)" style="fill: #E5B271;"/><path d="M0,0 L2,1 L7,20 L10,31 L10,38 L16,33 L25,17 L26,12 L29,12 L31,14 L33,10 L32,18 L28,30 L23,39 L14,49 L10,53 L7,53 L1,32 L0,27 Z " transform="translate(608,367)" style="fill: #15354E;"/><path d="M0,0 L4,1 L3,3 L-25,10 L-61,18 L-82,23 L-94,25 L-94,58 L-99,60 L-102,60 L-102,23 L-69,16 L-27,6 Z " transform="translate(580,874)" style="fill: #4F6271;"/><path d="M0,0 L8,0 L9,1 L9,59 L7,60 L1,60 L-1,58 L-1,1 Z " transform="translate(816,430)" style="fill: #5FF5B1;"/><path d="M0,0 L0,3 L-7,13 L-18,26 L-27,35 L-44,48 L-46,49 L-44,45 L-36,32 L-25,11 L-21,1 L-16,2 L-4,2 Z " transform="translate(515,419)" style="fill: #223E5B;"/><path d="M0,0 L6,0 L8,3 L7,5 L11,7 L12,8 L12,13 L8,16 L3,15 L1,14 L2,21 L6,26 L9,28 L17,28 L23,25 L26,19 L27,15 L32,16 L33,21 L30,28 L21,35 L17,36 L10,36 L1,32 L-4,27 L-7,21 L-7,9 L-4,4 Z " transform="translate(619,178)" style="fill: #D0E1E4;"/><path d="M0,0 L20,0 L36,5 L52,13 L70,24 L69,13 L74,17 L78,26 L78,34 L75,35 L59,27 L45,18 L33,12 L21,7 L7,4 L-7,3 L-7,2 Z " transform="translate(595,157)" style="fill: #A6E5EE;"/><path d="M0,0 L9,0 L16,2 L15,4 L-5,7 L-35,12 L-60,17 L-98,24 L-118,28 L-137,31 L-142,31 L-142,29 L-107,22 L-82,17 L-48,10 L-21,4 Z " transform="translate(826,661)" style="fill: #97CCE0;"/><path d="M0,0 L2,1 L0,7 L0,20 L6,17 L14,10 L16,10 L16,20 L15,34 L22,31 L30,25 L35,21 L33,26 L27,35 L19,42 L16,44 L10,44 L8,39 L8,26 L9,24 L1,29 L-7,29 L-7,15 L-2,3 Z " transform="translate(419,558)" style="fill: #122C43;"/><path d="M0,0 L8,0 L10,2 L10,47 L7,49 L1,49 L-1,47 L-1,1 Z " transform="translate(770,441)" style="fill: #4ED6F1;"/><path d="M0,0 L2,1 L-9,9 L-27,22 L-36,28 L-47,36 L-57,43 L-73,54 L-84,62 L-97,72 L-106,79 L-108,78 L-99,67 L-86,55 L-78,49 L-65,41 L-52,33 L-39,25 L-20,13 Z " transform="translate(246,583)" style="fill: #6B9BBC;"/><path d="M0,0 L7,1 L13,5 L15,8 L15,18 L10,24 L5,26 L-2,26 L-8,22 L-10,18 L-10,8 L-6,3 Z " transform="translate(142,541)" style="fill: #19486B;"/><path d="M0,0 L0,3 L-7,13 L-13,24 L-19,36 L-29,55 L-36,69 L-41,74 L-44,73 L-43,66 L-36,51 L-25,28 L-14,17 L-6,7 Z " transform="translate(218,764)" style="fill: #8DCFE1;"/><path d="M0,0 L3,1 L1,6 L-11,28 L-16,41 L-19,55 L-9,51 L-2,47 L2,44 L4,45 L-4,53 L-17,62 L-24,65 L-28,64 L-28,55 L-24,42 L-16,26 L-6,10 Z " transform="translate(325,420)" style="fill: #91D0E4;"/><path d="M0,0 L50,0 L52,2 L52,7 L50,9 L0,9 L-2,6 L-1,1 Z " transform="translate(355,216)" style="fill: #38BFEA;"/><path d="M0,0 L6,2 L4,6 L-5,15 L-10,20 L-27,37 L-31,42 L-33,42 L-35,46 L-48,58 L-53,60 L-51,55 L-38,39 L-26,26 L-18,18 L-14,13 L-6,6 Z " transform="translate(221,561)" style="fill: #71A9CB;"/><path d="M0,0 L0,3 L-9,13 L-17,22 L-26,35 L-34,49 L-37,58 L-28,53 L-26,54 L-33,61 L-43,67 L-47,67 L-46,58 L-43,48 L-36,37 L-25,24 L-18,16 L-10,9 L-2,1 Z " transform="translate(319,397)" style="fill: #96D5EA;"/><path d="M0,0 L1,4 L-7,25 L-11,35 L-12,39 L-2,37 L14,28 L23,20 L23,23 L10,36 L-5,46 L-16,50 L-21,50 L-21,43 L-16,30 L-1,1 Z " transform="translate(350,446)" style="fill: #6FAACC;"/><path d="M0,0 L6,0 L8,2 L19,1 L29,0 L29,3 L16,6 L9,6 L8,10 L6,13 L-1,13 L-4,10 L-33,15 L-36,20 L-37,21 L-44,21 L-46,18 L-46,12 L-42,8 L-37,8 L-34,11 L-23,9 L-8,6 L-4,6 L-2,1 Z " transform="translate(620,743)" style="fill: #64CFE1;"/><path d="M0,0 L6,0 L7,1 L7,51 L6,52 L-1,51 L-1,1 Z " transform="translate(186,323)" style="fill: #4FE5CE;"/><path d="M0,0 L3,1 L9,11 L12,25 L12,47 L6,68 L3,72 L5,44 L3,25 L2,22 L1,7 Z " transform="translate(666,333)" style="fill: #41709D;"/></svg>
